/* XPM */
static char *ccd270abd6694482e68568af488f6d7ap3YwhmaczGFlQ7bq[] = {
/* columns rows colors chars-per-pixel */
"50 50 10 1 ",
"  c None",
". c #181425",
"X c #3F2832",
"o c #262B44",
"O c #3A4466",
"+ c #BE4A2F",
"@ c #F77622",
"# c #FEAE34",
"$ c #FEE761",
"% c white",
/* pixels */
"                                                  ",
"                                                  ",
"                                                  ",
"                                                  ",
"                                                  ",
"                                                  ",
"                                                  ",
"                                                  ",
"                                                  ",
"         +++++                                    ",
"         +%%%$++                                  ",
"         +%%%%%%+                                 ",
"         +%%%%$%%+                                ",
"         +$%%$##%%+                               ",
"          +%%###%$%X                              ",
"          +%%###$#$%X                             ",
"           +%%##$##$$XX                           ",
"            +%%#$####$$X                          ",
"             +%$%##X.#$X                          ",
"              +%%#X  .##X                         ",
"               +%$X  .@##XXX                      ",
"                +%#XX#@@##$$X                     ",
"                +%$$@@#@@@@#$X                    ",
"                 +X#$@@@X.@@$X                    ",
"                   X#$@X  .@#.                    ",
"                    X%@X  .@#@. ..                ",
"                    +%@@XX@@@++.@.                ",
"                    +%#@@@@+++@.#.                ",
"                     +%$$#@+XXX.#@.               ",
"                      ++X@++X#@#.@.               ",
"                         X+@X#X@..                ",
"                          ...##@o.                ",
"                         X##@..ooo.               ",
"                         XXX#@..oOo.              ",
"                            ..  .oOo.             ",
"                                 .oOo.            ",
"                                  .oOo..          ",
"                                   .o@@@.         ",
"                                    .#X@.         ",
"                                    .###.         ",
"                                     ....         ",
"                                                  ",
"                                                  ",
"                                                  ",
"                                                  ",
"                                                  ",
"                                                  ",
"                                                  ",
"                                                  ",
"                                                  "
};
