/* XPM */
static char *_a5aa2607dbd4a73eab68c39bdef7f0dHYy8AXLGMu8npFOn[] = {
/* columns rows colors chars-per-pixel */
"50 50 215 2 ",
"   c None",
".  c #020203",
"X  c #03050B",
"o  c #05080F",
"O  c #0C0B09",
"+  c #090807",
"@  c #110F0D",
"#  c #060912",
"$  c #0A0F1E",
"%  c #080C16",
"&  c #0B101F",
"*  c #161412",
"=  c #1B1916",
"-  c #1A1715",
";  c #211F1E",
":  c #25221E",
">  c #0C1223",
",  c #0E162D",
"<  c #0F182E",
"1  c #131623",
"2  c #11192D",
"3  c #141928",
"4  c #0F1930",
"5  c #121B32",
"6  c #151E3B",
"7  c #16203E",
"8  c #1B243D",
"9  c #2D2B2A",
"0  c #282521",
"q  c #322E2B",
"w  c #36312E",
"e  c #38342F",
"r  c #25293C",
"t  c #2B2E3C",
"y  c #373538",
"u  c #433D38",
"i  c #46403A",
"p  c #77433F",
"a  c #1B264A",
"s  c #1D294C",
"d  c #192444",
"f  c #1D2B53",
"g  c #222549",
"h  c #242C45",
"j  c #3D254C",
"k  c #3C334D",
"l  c #393B4C",
"z  c #37354E",
"x  c #222D53",
"c  c #2C2B53",
"v  c #352B52",
"b  c #3B2A52",
"n  c #3A2752",
"m  c #263153",
"M  c #2B3553",
"N  c #29365B",
"B  c #343B52",
"V  c #393E52",
"C  c #3E345A",
"Z  c #323D61",
"A  c #43264C",
"S  c #562A4F",
"D  c #41354C",
"F  c #4A354B",
"G  c #4B384A",
"H  c #483546",
"J  c #573B47",
"K  c #593C47",
"L  c #5C344B",
"P  c #563749",
"I  c #452953",
"U  c #4A2C51",
"Y  c #4B2553",
"T  c #5A2753",
"R  c #532A54",
"E  c #572853",
"W  c #4F3356",
"Q  c #682E4F",
"!  c #7A2D4E",
"~  c #653E45",
"^  c #6B3E45",
"/  c #653848",
"(  c #783748",
")  c #6C2654",
"_  c #652A52",
"`  c #642753",
"'  c #752653",
"]  c #7C2652",
"[  c #792A53",
"{  c #7A325C",
"}  c #6E3959",
"|  c #7E3C69",
" . c #3D4151",
".. c #3F414E",
"X. c #3C4668",
"o. c #4A4748",
"O. c #534D4A",
"+. c #57504C",
"@. c #5B544D",
"#. c #444551",
"$. c #4A4A50",
"%. c #4B4558",
"&. c #524F50",
"*. c #555050",
"=. c #5A5451",
"-. c #674044",
";. c #6A4145",
":. c #764441",
">. c #7D4341",
",. c #60584F",
"<. c #7B4159",
"1. c #605850",
"2. c #464D6D",
"3. c #4C5573",
"4. c #525C78",
"5. c #4A5070",
"6. c #7E406D",
"7. c #745778",
"8. c #5A627C",
"9. c #636576",
"0. c #85473E",
"q. c #86483E",
"w. c #8B473E",
"e. c #9D443E",
"r. c #934B3B",
"t. c #9C4C3A",
"y. c #96473D",
"u. c #A1453D",
"i. c #A44B3A",
"p. c #AA4E39",
"a. c #A64E36",
"s. c #A65137",
"d. c #AD5236",
"f. c #A95038",
"g. c #B05435",
"h. c #842C4E",
"j. c #8C2F49",
"k. c #83324C",
"l. c #8C344A",
"z. c #8A3946",
"x. c #933B45",
"c. c #993D43",
"v. c #923648",
"b. c #822654",
"n. c #832B51",
"m. c #882D50",
"M. c #873757",
"N. c #884440",
"B. c #9D4141",
"V. c #944240",
"C. c #944656",
"Z. c #A45B4B",
"A. c #AB6B5A",
"S. c #8B4869",
"D. c #945875",
"F. c #9A7279",
"G. c #936471",
"H. c #B07062",
"J. c #88837F",
"K. c #B78170",
"L. c #6A6688",
"P. c #746189",
"I. c #766584",
"U. c #777C90",
"Y. c #777A8E",
"T. c #775E87",
"R. c #845E86",
"E. c #866788",
"W. c #927789",
"Q. c #83769C",
"!. c #85789F",
"~. c #94738F",
"^. c #AB758C",
"/. c #867AA0",
"(. c #858299",
"). c #928B8D",
"_. c #AF918E",
"`. c #BDA39D",
"'. c #958DA9",
"]. c #948BA8",
"[. c #9496A4",
"{. c #9B93AD",
"}. c #9C97AB",
"|. c #A09BB2",
" X c #AC93A4",
".X c #A7A3AD",
"XX c #ADAAB9",
"oX c #AAA6B2",
"OX c #B2ADBC",
"+X c #B7AAB4",
"@X c #B5B4BD",
"#X c #B9B7BD",
"$X c #B8A1A1",
"%X c #C09C92",
"&X c #C1A39B",
"*X c #C8B8BA",
"=X c #BCBBC2",
"-X c #BCB7C2",
";X c #C1BFC3",
":X c #C3C2C6",
">X c #CCC9CC",
",X c #C8C4C8",
"<X c #D5CCCC",
"1X c #D5D2D1",
"2X c #DBD6D5",
"3X c #E5DCD9",
"4X c #ECE3DE",
"5X c #F5E7DF",
"6X c #F2E6E0",
"7X c #F6EAE3",
"8X c #FAEDE5",
"9X c #FAEFE8",
"0X c #FFF2E9",
"qX c #FDF0E7",
"wX c #EFE5E0",
/* pixels */
"                                                                                                    ",
"                                                = =                                                 ",
"                                            - : +.+.: =                                             ",
"                                          : +.$.,.&.@.o.1                                           ",
"                              O - * * @ * +.$.V $.B $.m s % @ * * * O                               ",
"                            O 0 o.@.@.y * #.V #.M #.m f d # y O.+.O.0 O                             ",
"                          O 9 q : +.#.8 o h #.m s a s d o . 8 s o.= w w O                           ",
"                        + w #.6 & h f 6 X % x s 7 $ 7 $ . o 5 > 8 & u =.9 +                         ",
"                      + 9 O. .a , $ 5 % 5 o d d # 5 # 5 # < % < % e &.V #.9 +                       ",
"                    + w #.M x 6 X X o X X X o X X # X # X # X o o 5 x #.V l 9 .                     ",
"                  + q +.=.V f , $ g a g a g g a g g a g g a g g a > 5 x x x d 3 +                   ",
"                + w 9 w l x 5 , j ' ' T v ' _ c ) _ v _ ) v T ' n s > 5 s , o 9 e +                 ",
"              + e l a 3 5 5 > A ' ] b.) v h.N.v [ [ v N.k.v ` c.G R A > o . : +.+.w +               ",
"            + e +.B > , , > j ' ` I l.>.v k.y.D V.! v r.i.k Q B.G T ' j > & l $.m B w .             ",
"          + w +...3 . X 3 a I v.^ D i.q.k i.i.! a.y.z r.f.D N.f.G E b.Y a , 2 m s 7 1 2 +           ",
"        . e 0 r 3 . . > A I P i.p G d.q.k s.i.k.p.t.k r.s.D q.f.G ^ j.I I A 3 # % X + 1 w +         ",
"        . i o.= X . > j ' R K g.>.G d.q.D s.t.F t.t.z ! t.k 0.x.k p v.' ' ' A $ . . * o.i .         ",
"        . i 1.o.r % 4 R b.U K B.D.W.x.q.k s.r.z z.t.k N.p.( ! ^.2.p v.E T b.R < # r i 1.u .         ",
"        . i 1.#.x $ 4 R v./ K H.{.~.l.0.k i.( v [ y.k r.d.M.V.$X(.6.c.P Y v./ , > B 1.1.i +         ",
"        + i 1.$.M $ 4 / i.~ K H.-XG.u.0.k i.z.z V.t.k r.s.L V.`.{.| B.J K p.^ 5 $ V 1.=.r .         ",
"        + u 1.#.m $ , -.g.N.( H.{.{.A.z.z a.Z.).`._.} t.s.k W.*X'.| B.J ^ g.~ 4 $ B &.V y .         ",
"        . i #.#.M > 5 -.g.( ^ f.F.|.+X).7._.`.3X3X3X X_.F.(.@X.XR.C.a.J ~ g.-.4 $ B *.#.h .         ",
"        . u $.V m $ 4 -.g.~ P a.S.[.@X|.@X4X4XqXqXqX4X2X@X|.=X'.| e.e.U -.g.-.4 $ B &. .y .         ",
"        + u $. .M $ 5 -.g.^ P i.<.L.}.OX4X0X9XqXqXqX0X9X4XXX}.F.M.B.v.I -.u.L < $ B *.#.t .         ",
"        . i $.#.m $ < -.g.-.J g.:.2.XX4X0X0X0X0X0XqX0X0X0X4XOXA.Q w.u.F ^ u.L < > B *.B 7 .         ",
"        . i $.x f > 4 -.i.L P g.0.7.>X4X0X0XqX0X0X0X0X0X0X4X,XA.H p g.J ^ g.^ , $ B *.B 7 .         ",
"        . i #.m 6 # 4 / c.L P a.C. X1X@X[.oXqX0XqX0X8XoX[.#X1X`.%./ a.P L a.^ , $ B +.B 7 .         ",
"        + i $.M 5 X , Y j.L F j.D.2X9X=X4. ..X7X0X7X.XN 4.:X5X<X4.T j.F Y j./ , $ B $.a > .         ",
"        . i B f 6 # #.~.^.E.I.D.~.1X0X8X:X4.X.4X0X3XX.8.,X8XqX1XL.7.^.~.E.~.7.r $ B $.a $ .         ",
"        . u B 7 > X ).8XwX>XXX{.].-XwX0X8X;XU.3XqX2XY.:X8X0XwX#X{.-X2XwX;XXX{.%.$ B $.s > .         ",
"        . y h > 3 # ).>XXX{.Q.Q.Q.'.>X6X0X8X1X>X4X>X2X8X0X4X>X'.XX,X@X+X'.Q./.%.# r l 5 # .         ",
"        . , # > & . 9.{.Q.Q.Q.Q.Q.{.:X=X,X6X@X[.[.[.#X5X,X;X:X'.|.OX].Q.Q.!./.%.X , > X , .         ",
"        . * = = 8 & l P.E.T.P.R.T.(.>X.X2.[.N f f f N }.5.oX>X~.P.I.E.P.P.E.T.k > 8 = = * .         ",
"        . u ,.@.B $ < R b.Y U m.T 5.*X<X3.N 5.x f f 3.N 4.<X*XS.b T b.I R m.R 4 $ B @.@.y .         ",
"        + i 1.*.B & < R n.R K B._ b F.7X<XU.<X8.4.9.<XY.<X5XH.v.U ` m.I -.c.R < $ B =.*.r .         ",
"        . i =. .x $ < R B.-.K g.>.I S.*X6X6X9X7X7X7XqX4X4X@XA.p.! ' B.K -.B.R , $ B 1.=.y .         ",
"        . i 1.*.M $ 5 -.d.^ K d.:.F s.A.oX#XwX7X7X7XwX*XoX2.Q i.G _ B.K -.g.~ 4 $ V =.$.r .         ",
"        . i *.V x $ , ;.g.;./ g.:.G d.q.C S.+XXX+X+XoXS.{ n 0.d.G :.d.K ~ d.^ 4 $ V $.V y +         ",
"        + i  .#.B > < -.f.V.z.d.:.G d.N.v n.{ W { { W [ ] I w.d.G :.d.K T c.-.4 $ B @.#.d .         ",
"        . u *.B f $ 5 -.d.x.z.d.:.G u.Q k V.h.' n.[ M N.j.] y.f.F :.d.z.] B.;.5 $ B $.M 7 .         ",
"        . i  .x f > , -.g.^ K p.:.G f.N.v z.e.h.t.y.k r.a.l.e.v.b :.p.v.x.d.-.4 $ B @.#.6 .         ",
"        . i *.M f & 5 -.d.^ U c.:.G d.q.k t.r.I k.t.k r.f.k.e.l.b :.c.] x.d.-.4 $ B O.m 6 .         ",
"        . i V x f & 4 -.B.R P p.:.G s.q.D f.r.z y.t.k r.i.F w.a.F :.d.K :.B.R 2 $ B #.7 X .         ",
"        . i M s > . 4 ^ p.~ K g.:.b v.q.D s.r.z t.s.k r.l.v q.d.G :.d.P ~ p.~ < > x d o . .         ",
"        . 8 x , , $ 5 E B.-.P d.:.n l.0.D a.r.k t.t.l r.t.k ) u.G T u.K ~ d.-.< $ f s , . .         ",
"        . 6 f a > . < U c.-.I l._ n l.N.v l.r.k t.k.v w.l.v ` e.G T n.U ^ c.S 2 $ f d X . .         ",
"        . 7 f , . . 4 R h.R I ] T n n.Q v h.w.v [ ' v ( ] v ` h.b E b.I R m.R 2 & 6 > , . .         ",
"        . 6 > . . . 4 c b c c n v x b v x v D x v v x v n x v v x v v c c v c 2 X > 5 X . .         ",
"        . # X . . . , V $.$.$.$.$.$.$.$.$.$.$.$.$.$.$.$.$.$.$.$.$.$.$.$.$.$.V 5 . X # . . .         ",
"                                                                                                    "
};
