/* XPM */
static char *_d1008236b8e4fbdfe7b68bbda35e744PoYd8u71n9GxzLoV[] = {
/* columns rows colors chars-per-pixel */
"50 50 189 2 ",
"   c None",
".  c #0F0209",
"X  c #13060B",
"o  c #16090E",
"O  c #180B0F",
"+  c #0E0410",
"@  c #150A11",
"#  c #1A0D12",
"$  c #1C1116",
"%  c #1E131A",
"&  c #22130E",
"*  c #241313",
"=  c #2C1D15",
"-  c #20161D",
";  c #23191F",
":  c #2E1F19",
">  c #381716",
",  c #2F2018",
"<  c #352315",
"1  c #33231A",
"2  c #3C2B1B",
"3  c #392718",
"4  c #1F1920",
"5  c #261D24",
"6  c #271E28",
"7  c #261C25",
"8  c #2B2124",
"9  c #2B222B",
"0  c #362829",
"q  c #2E2633",
"w  c #2E2835",
"e  c #312A36",
"r  c #342D3B",
"t  c #382D3A",
"y  c #393136",
"u  c #37303C",
"i  c #39333D",
"p  c #373137",
"a  c #451C19",
"s  c #44261A",
"d  c #57291C",
"f  c #4B361B",
"g  c #4D3A1F",
"h  c #73291C",
"j  c #7A371F",
"k  c #452826",
"l  c #493520",
"z  c #4C3A24",
"x  c #453528",
"c  c #513C20",
"v  c #463C3A",
"b  c #7D3928",
"n  c #7F3B30",
"m  c #5A4422",
"M  c #4F4238",
"N  c #514233",
"B  c #644D25",
"V  c #644B27",
"C  c #6B5328",
"Z  c #705733",
"A  c #7D612B",
"S  c #78623A",
"D  c #373140",
"F  c #3A3544",
"G  c #3C3748",
"H  c #3E394B",
"J  c #423D44",
"K  c #403C4C",
"L  c #423E52",
"P  c #49464E",
"I  c #494449",
"U  c #5B5041",
"Y  c #464355",
"T  c #4D4B54",
"R  c #47445A",
"E  c #49465B",
"W  c #4B495D",
"Q  c #4A4750",
"!  c #504F57",
"~  c #584B56",
"^  c #54545D",
"/  c #5B565E",
"(  c #585256",
")  c #625B59",
"_  c #676157",
"`  c #4D4B61",
"'  c #504F63",
"]  c #525164",
"[  c #555469",
"{  c #5A5B6D",
"}  c #565869",
"|  c #5C5D70",
" . c #755F62",
".. c #6C5D66",
"X. c #5F6069",
"o. c #5F6075",
"O. c #68676C",
"+. c #63636A",
"@. c #756A6C",
"#. c #626574",
"$. c #666877",
"%. c #696B76",
"&. c #646778",
"*. c #66697B",
"=. c #696D7E",
"-. c #6E717D",
";. c #737275",
":. c #73757B",
">. c #77797D",
",. c #797279",
"<. c #883E23",
"1. c #944324",
"2. c #964628",
"3. c #8F4B33",
"4. c #924C33",
"5. c #975239",
"6. c #85692D",
"7. c #8C6F2E",
"8. c #826529",
"9. c #856C3A",
"0. c #977837",
"q. c #A07E35",
"w. c #8F5744",
"e. c #897447",
"r. c #917840",
"t. c #887853",
"y. c #857C67",
"u. c #8C7B7A",
"i. c #AA853A",
"p. c #AE893B",
"a. c #A78235",
"s. c #B38C3C",
"d. c #B99243",
"f. c #80817F",
"g. c #A3997A",
"h. c #C59B42",
"j. c #CA9F44",
"k. c #6A6F81",
"l. c #6D7282",
"z. c #727584",
"x. c #757A86",
"c. c #757B8A",
"v. c #787E8B",
"b. c #7B7D82",
"n. c #777F90",
"m. c #7B828E",
"M. c #7E8592",
"N. c #778191",
"B. c #86898D",
"V. c #898A8F",
"C. c #8B8488",
"Z. c #818692",
"A. c #828994",
"S. c #858D9A",
"D. c #8A8E97",
"F. c #87909C",
"G. c #8B939E",
"H. c #91969C",
"J. c #989B9A",
"K. c #8792A1",
"L. c #8C96A2",
"P. c #8F98A4",
"I. c #929AA4",
"U. c #949EA9",
"Y. c #97A0AB",
"T. c #9AA3AC",
"R. c #9BA0A3",
"E. c #9FA9B1",
"W. c #B3AEAD",
"Q. c #A2ACB4",
"!. c #A6AFB8",
"~. c #AAB4BC",
"^. c #AFB9BF",
"/. c #B4B9B7",
"(. c #A2A8AB",
"). c #AEBAC1",
"_. c #B1BCC2",
"`. c #BBC6CA",
"'. c #BFC9CD",
"]. c #B8C2C7",
"[. c #C1CBCF",
"{. c #C9D0CA",
"}. c #C3CED1",
"|. c #C5D1D5",
" X c #C9D4D7",
".X c #CEDADB",
"XX c #D3DFDF",
"oX c #D1DDE1",
"OX c #D5E2E2",
/* pixels */
"                                                                                                    ",
"                                                                                                    ",
"                                                  X o o                                             ",
"                                              7 p p 9 6 7                                           ",
"                                            % I P.P.#.` H -                                         ",
"                                          o P I.[.[.U.&.E K -                                       ",
"                                          o ! U.T.T.P.^ - 9 F 6                                     ",
"                                          o J k.=.A.Q.H.O.T r - #                                   ",
"                                          O e ] z.Y.[. X~.x.J - #                                   ",
"                                          O q z.|.}.}.!.c.] v.p X                                   ",
"                                          # q :.[.Y.I.P.c.` ] 9                                     ",
"                                        # d k D z.F.G.x.} E 9 %                                     ",
"                                      * d <.<.a r &.l.| L q @                                       ",
"                                    * a <.2.<.<.> t F G t > > *                                     ",
"                                  - k 4.5.2.1.2.<.y 6 5 0 n h > #                                   ",
"                              $ # ! Z.V.C.w.<.<.5.W.L.v.P.W.<.h a $                                 ",
"                            9 V.:.c.L.K.L... .u.C.T._.'.!.-.~ @.;.^ $                               ",
"                            0 '.}.E.S.S.l.F } L.G.S.Q.).G.W W v.Y.%.$                               ",
"                            7 Z.J.Y.Q.I.Q J x.T.F.F.S.F.c.` { ;.D.%.$                               ",
"                            : 1 : @.`.(.9 V.}._.I.P.I.I.n.{ Z.U _ +.$                               ",
"                          f p.p.s.Z 9 8 $ Q x.E.[.}.}.}.).A.S.i 2 x $                               ",
"                        + z h.h.j.0.f O # G [ #.x.U.}.oX'.F.&.9 < 2 O                               ",
"                          2 a.h.s.a.C $ # 9 G E W *.Z.G.Z.#.u % < z e %                             ",
"                        0 I e.p.A B g $ # , v ( W E R R R L % * 2 N R ;                             ",
"                      o T L.V.e.2 # $ # O C 7.S ~ { [ ' [ ' : s g M R %                             ",
"                      o T P.F.A.p X   # $ C 7.8.e./.U.M.U./.9.3 e W Q %                             ",
"                      o T L.G.K.i     % +.f.t.8.0.[.|.'.|.{.r.< w ' R % #                           ",
"                      o ! P.S.k.q . v :.S.F.J.g.y.;.;.;.;.;.y.0 w R e 1 * @                         ",
"                      @ I v.z.( x & P |.Q.T.).).M.q 4 $ X ; m.^ F r , m : @                         ",
"                      @ y / ) 9.7.f I [.}.}.!.S.N.` ` r O 5 x.S.Q = m A 3 @                         ",
"                      @ V d.s.h.0.f i I.I.I.P.v.] ` ` e # % W } u 1 6.6.2 @                         ",
"                      @ m p.h.h.B ) I.S.S._.>.F W W r % # $ 6 X.| v m m : @                         ",
"                        3 V i.i.3 :.oX_.^.B.! r E u - # # # # -.S.+.g < *                           ",
"                          1 B B = ( R.I.J.J r W F # # # # # % ! M.:.2 *                             ",
"                            $ # # # - - ; K W D $ # # # # # # # T O.$                               ",
"                                  # 5 L Y W u % # # # # # # # # % 7                                 ",
"                                  P #.E E ` e o #   # # # # @ e H r $                               ",
"                                o ! P.D.D.| w o #   # # % r T &.o.G #                               ",
"                                o T Q..X.XZ.K 7 #   # - u &.S.L.l.F $                               ",
"                                o Q U.}.}.U.#.D $   # e | Z.S.S.&.D $                               ",
"                                o r &.P.P.&.r %     # e ` ] ] ] u %                                 ",
"                                # e ] { { u % #     # - 9 6 6 6 - #                                 ",
"                                # w W W W 7 o #     $ # # o # o #                                   ",
"                                # w ` R H 7 #       # # # # # #                                     ",
"                                O p } W - # #       # # # # - %                                     ",
"                                o T S.x.5 #         # # # - H 6 #                                   ",
"                              o X ; y G O.e o       # 9 L F 9 r q o #                               ",
"                            5 T O.;./ r T 8 o       # 6 r r T $.W q e %                             ",
"                            5 m.[.OX^.{ 9 $ #       # # # r M.P.c.{ R -                             ",
"                            5 m.`..X].A.' 6 o       # # 7 ] A.G.G.v.Y -                             "
};
