/* XPM */
static char *_26cf0510d644f1cec8deafa1607fa3emwS1LEkzvB8gQsvk[] = {
/* columns rows colors chars-per-pixel */
"50 50 124 2 ",
"   c #010102",
".  c #04060A",
"X  c #06080D",
"o  c #0A0A0C",
"O  c #100F0D",
"+  c #11100F",
"@  c #070A13",
"#  c #0A0C14",
"$  c #070C18",
"%  c #090E1A",
"&  c #0E1015",
"*  c #0B101F",
"=  c #141313",
"-  c #191714",
";  c #1C1917",
":  c #0C1223",
">  c #0E162A",
",  c #121724",
"<  c #141825",
"1  c #1C1D25",
"2  c #10172D",
"3  c #11192E",
"4  c #121B33",
"5  c #141E3B",
"6  c #1B2134",
"7  c #15203E",
"8  c #1A233C",
"9  c #242224",
"0  c #2A2623",
"q  c #2C2823",
"w  c #2F2B28",
"e  c #312D2A",
"r  c #35302C",
"t  c #39342E",
"y  c #252937",
"u  c #2A2A30",
"i  c #21263A",
"p  c #24293B",
"a  c #2C2E3B",
"s  c #343337",
"d  c #3B3631",
"f  c #343339",
"g  c #39373B",
"h  c #3D3A3C",
"j  c #423C36",
"k  c #433E3A",
"l  c #46403A",
"z  c #49433E",
"x  c #172242",
"c  c #192546",
"v  c #1A264A",
"b  c #1B284D",
"n  c #1D2B53",
"m  c #232B43",
"M  c #252D49",
"N  c #2D3244",
"B  c #26304D",
"V  c #2A334E",
"C  c #323542",
"Z  c #3A3B47",
"A  c #31364A",
"S  c #34394B",
"D  c #3B3D4C",
"F  c #212E53",
"G  c #253153",
"H  c #253154",
"J  c #293353",
"K  c #2B3452",
"L  c #2A3453",
"P  c #2C3552",
"I  c #2C3553",
"U  c #2F3752",
"Y  c #2E3753",
"T  c #2F3853",
"R  c #303751",
"E  c #303852",
"W  c #323952",
"Q  c #323953",
"!  c #353B52",
"~  c #373C51",
"^  c #363C52",
"/  c #3A3E51",
"(  c #403E42",
")  c #3F414E",
"_  c #3C4052",
"`  c #3E4152",
"'  c #3E4153",
"]  c #3F4252",
"[  c #444141",
"{  c #424146",
"}  c #4D4741",
"|  c #494647",
" . c #4A4646",
".. c #4C4745",
"X. c #4E4841",
"o. c #40414C",
"O. c #44444D",
"+. c #4D4A4D",
"@. c #4E4A4D",
"#. c #504942",
"$. c #524B43",
"%. c #524B46",
"&. c #534D47",
"*. c #564E47",
"=. c #514D4C",
"-. c #57514D",
";. c #5B534C",
":. c #5B544C",
">. c #5B544E",
",. c #5D554D",
"<. c #5F574F",
"1. c #434451",
"2. c #454551",
"3. c #474751",
"4. c #484750",
"5. c #4A4950",
"6. c #4B4A51",
"7. c #4D4B51",
"8. c #514D51",
"9. c #534F50",
"0. c #555051",
"q. c #595350",
"w. c #5D5650",
"e. c #625951",
/* pixels */
"~ ~ ~ ~ ~ ~ ~ H L / ~ ~ ~ ~ _ L L ~ ~ ~ ~ ~ / T H ~ / ~ ~ ~ ~ ! F Q / / ~ ~ ~ ~ H L / ~ ~ ~ ~ ~ Y n ",
"5.5.5.5.5.5.5.m D +.+.5.5.5.5.A N 5.5.5.5.5.5.D m 5.5.5.5.5.5.2.p D 5.5.5.5.5.5.N A 5.+.5.5.5.5.S 5 ",
"n n n n n n n % 5 F n n n n n > > n n n n n n 5 $ n n n n F n b # c n n n n n n * 4 n n F n n n 4   ",
"7 5 x 5 7 7 5 @ > 7 7 5 7 7 x % % 5 x 5 7 5 x > X 5 5 5 x 5 7 5 X 4 x 5 5 x 7 7 $ : x 7 5 x x 7 :   ",
"= - - # = # $ @ = # $ $ $ $ .   o = & = $ $ $ $ @ $ @ $ $   @     = # - # $ $ # # @ $ @ $ . X X     ",
";.;.+.R O.V b n o.L n b b v : . 0 ) A ) n b n b b n b n 5 % 4 $ X z V o.V b b n b b b n v : : > .   ",
"w.8.I 2.L n n n F n n n v : : % 9 1.n n n n n n n n n 5 % 4 @ 4 o Z L n n n n n n n n b > : : : :   ",
"..R F F n n n n n n n b >       : b n n n n n n n n v % 5 $     . 5 n n n n n n n n n 4 2 > .       ",
"O h m c c c c c c c c * > :       : c c c c c c v v c 4 @ 4 .     . 5 c c c c c v c c x : : :       ",
"o = # # # @ . . . X # o o o . o . X # @ @ @ X . . . = # o o o . o . o # @ @ @ X . . o & X o o       ",
"&.| N ( M c $   . d *.%.%.%.A A Z N D v c v 4 .   - X.*.%.%.| M { M { M v v v %     e =.S C S 3     ",
"q.Q 5.I n n v % t ,.,.` 5.' F F F G n n n n b 4 + $.,.=./ 8.L F G n G n n n b v % w / 2.` F F n >   ",
"q.H F F n n b # j ,./ 1./ n n n n n n n n 5 : 5 = ,.8.~ 2.L n n n n n n n b : 5 % 6 ) ` F n n n >   ",
"0.G n n n b *   j ' 1./ F n n n n n n n 7 : 3 . = =.R 2.L n n n n n n n n : 4 :   s / F n n n 4 .   ",
"L F n n b *     j ~ H F n n n n n n n n v 4 X   = +.F L n n n n n n n n n x :     4 G n n n 4 : :   ",
"5.F n b : 4 @   6 F n n n n n n 4 2 5 2 7 : 2   # B n n n n n n b : x : x : 3 @   4 n n n 4 > > @   ",
":.G b : 4 :     @ 5 n n n n n 4 : 2 : > : 3 X     : b n n b n b : 4 * 4 * 3 : .   . 4 n 4 . . .     ",
"- # %   @         X % $ $ $ $ X . . . # . @         $ # $ $ $ $   @   @ . @         X % .           ",
". t j j j j 8 g i s y 5 4 5 %     ; j j j j g 8 s i g 6 4 5 4       t j j i s y f y 5 5 5 5 *       ",
"j ;.w.` -.` F T G I G n n n c % ; } e.7.1.-.Q G I G I n n n n 5 . r ;.e.` 1.` G I H n n n n v *     ",
"e.,.` 1.~ G n n n n n n n n n : q e.+.` ` L n n n n n n n n n b # X.` ~ ` / F n n n n n n n 5 > *   ",
"q./ F T F n n n n n n n 4 5 5 @ q 8.` 1.I n n n n n n n b > v : . N F n Q G n n n n n n n 7 X X @   ",
",.2.G n n n n n n n n 4 > > > $ q 2.G I n n n n n n n b : > : 3 X C G n n n n n n n 4 7 5 : % @ %   ",
"w.` n n n n n n n n 4 > > X @ @ 1 T n n n n n n n n v > 4 : . % X N G n n n n 4 7 5 > > $ @ $ @ #   ",
"w D F n n n n n n n 5 > > @     @ 5 n n n n n n n n b 2 > : .     : v n n n 4 > > > > $   @ $       ",
". 9 3 > > > 2 > > > > @ $ @       @ > > > > > > > > > :   :         : > > > . : @ $ @     $ $       ",
"q 0 , 9 , : .     ; q q 0 q 1 1 1 1 9 > : : %     . 0 0 q 0 0 , 9 < 9 < : : : X     - 1 1 0 q 9 $   ",
",.2.` 1.H n 2 . ; X.e.7.=.0.I Q Q I ~ n n n v % o e ,.,.5.q.2.H / H ` H n n n 4 . - g ` 1.=.0.N %   ",
",.` ` G n n n $ j e.7./ ` I n n n n n n n v 5 x - ,.,.1.` ` G n n n n n n n 5 v % u ` 1.T Q Q x @   ",
":.3.G n n n 5 X j 7.` 1.R n n n n n n n v 2 : : = -.2./ 1.n n n n n n n n 5 : 3 @ 4 ! Q n n n v %   ",
":.H n n n n > . j / ` I n n n n n n n n x : :   = +.L ` F n n n n n n n n 2 > @   4 n n n n v > @   ",
"1.H n n 7 b 7 X f I n n n n n n c c v c b 4 @   = ) n n n n n n n x b 7 b x : .   4 n n n v % # :   ",
"I G n x : 4 o   > v n n n n n v 3 , 3 : 4 : >   X 7 n n n n n n 7 : 4 : 4 : 4 @   : v n v 3 .       ",
"h 8 5 o 3 .       > 7 7 7 7 7 : % : $ : $ >       . 5 7 7 5 7 5 X 2 @ > X > @       : 5 % : :       ",
"  = = = = = # # # # $ @ $ @ X     . - - = = @ # = @ $ @ $ @ $       O = = - # @ + # $ $ @ @ @ .     ",
"; %.:.:.=.+.V ) V b b n b n 2 . . e ,.=.=.) b V ) b n b n b v $   + X.,.=.+.V n D A n c c n n >     ",
":.-.w.0.L n n G n n n n n v v > 0 q.8.2.F F n n F n n n n n c c # z -.-.L n F n n F b : 4 n n > .   ",
"+.Q +.G n n n n n n n n v > 4 > 9 O.F F n n n n n n n v n x * c # z I F n n n n n b : > v b 4 : :   ",
"Q 5.L n n n n n n n n b > > b > : F n n n n n n n n 7 : 5 % 5 v @ c n n n n n n n 2 > > > > : :     ",
"7.L n n n n n n v n v : > : 4 : : n n n n n b b n 5 % 4 $ 4 * 5 @ x n n n n n b n v : > :     .     ",
"M n n n n n n b : 5 > . . > :   : b n n b n 5 : 5 % 4 #   X 4 @ . 7 n n b n b : 4 :                 ",
"@ x b v v b b % 3 : > # : :       : b 4 : 4 % 4 % 4 % 4     .     X 5 v % 4 : > :                   ",
". o # @ @ @ X   . . o . X X .   . . @ X . . . .   X . o . .         @ @ . . . .       . .           ",
"} X.[ m c 5 @     e } N C N c C C x x x , @ >     = z [ m Z m c Z m 7 c 5 @ > %     e } C x c :     ",
"=.Q L F b * 4 @ e S I F B F n M M 4 > 5 X   * > O k V L F B F b L b : 7 *   X 4 # q D L 3 3 4 .     ",
"- # $ # # . o . o + # # # # $ % # o X @     . o . = # # # @ $ # # $ . # .     o . + # # . o X       ",
"l k k k k z k p g l k l k k k a a k z k k z z g i k k k k z k k 8 h j k z k z [ p f l l k z l l s 7 ",
"Q Q I ~ Q Q Q < m Q Q I / Q R i 5 Q Q Q Q T Q M < R T ~ Q T Q F , N Q S Q Q Q Q 1 8 Q T Q Q Q Q 8 $ ",
"n n n n n n n $ 4 n n n n n n : : n n n n n n 5 @ b n b n b n c # x n n b n n b $ 2 n n n b n b 4   ",
"* * : % % % % . $ : * * * % * @ . : * * * * * $ . * * * * : * *   % : : * * * * . # : : * * * : $   "
};
